<svg xmlns="http://www.w3.org/2000/svg" enable-background="new 0 0 64 64" viewBox="0 0 64 64" id="online-work"><circle cx="32" cy="20" r="12" fill="#5eb38c"></circle><path fill="#adc4e6" d="M20,20c0,6.627,5.373,12,12,12V8C25.373,8,20,13.373,20,20z"></path><path fill="#e6e6e6" d="M32 8c-2.423 0-4.675.724-6.562 1.96C25.494 9.973 25.542 9.986 25.6 10c2.37.591 4.012 1 6.4 1 2.617 0 4.941-.393 6.4-1l.156-.043C36.671 8.723 34.421 8 32 8zM32 32c2.416 0 4.661-.721 6.544-1.949C38.495 30.034 38.45 30.018 38.4 30c-.62-.218-3.003-1-6.4-1-2.617 0-4.941.393-6.4 1l-.156.043C27.329 31.277 29.579 32 32 32z"></path><polygon fill="#cc6c66" points="14 17 11 21 17 21"></polygon><polygon fill="#cc6c66" points="50 23 53 19 47 19"></polygon><path fill="#759acc" d="M17,50H9c-2.761,0-5,2.239-5,5v5h18v-5C22,52.239,19.761,50,17,50z"></path><path fill="#e6e6e6" d="M17.13,62H8.87C8.389,62,8,61.611,8,61.13v-6.26C8,54.389,8.389,54,8.87,54h8.26
	c0.48,0,0.87,0.389,0.87,0.87v6.26C18,61.611,17.611,62,17.13,62z"></path><path fill="#ffdbac" d="M13.119,50h-0.238C9.647,50,7,47.353,7,44.119v-2.238C7,38.647,9.647,36,12.881,36h0.238
	C16.353,36,19,38.647,19,41.881v2.238C19,47.353,16.353,50,13.119,50z"></path><path fill="#526273" d="M18.925,40.995C18.494,38.178,16.052,36,13.119,36h-0.238c-2.934,0-5.377,2.18-5.807,4.999
	c3.528-0.006,6.586-0.464,8.026-1.119C16.005,40.549,17.377,40.981,18.925,40.995z"></path><path fill="#759acc" d="M55,50h-8c-2.761,0-5,2.239-5,5v5h18v-5C60,52.239,57.761,50,55,50z"></path><path fill="#e6e6e6" d="M55.13,62h-8.26c-0.48,0-0.87-0.389-0.87-0.87v-6.26c0-0.48,0.389-0.87,0.87-0.87h8.26
	c0.48,0,0.87,0.389,0.87,0.87v6.26C56,61.611,55.611,62,55.13,62z"></path><path fill="#ffdbac" d="M51.119,50h-0.238C47.647,50,45,47.353,45,44.119v-2.238C45,38.647,47.647,36,50.881,36h0.238
	C54.353,36,57,38.647,57,41.881v2.238C57,47.353,54.353,50,51.119,50z"></path><path fill="#526273" d="M56.925,40.995C56.494,38.178,54.052,36,51.119,36h-0.238c-2.934,0-5.377,2.18-5.807,4.999
	c3.528-0.006,6.586-0.464,8.026-1.119C54.005,40.549,55.377,40.981,56.925,40.995z"></path><path d="M48 43L48 43c-.552 0-1 .448-1 1l0 0c0 .552.448 1 1 1l0 0c.552 0 1-.448 1-1l0 0C49 43.448 48.552 43 48 43zM54 43L54 43c-.552 0-1 .448-1 1l0 0c0 .552.448 1 1 1l0 0c.552 0 1-.448 1-1l0 0C55 43.448 54.552 43 54 43z"></path><path d="M61,59v-4c0-3.008-2.227-5.498-5.117-5.928C57.185,47.82,58,46.064,58,44.119v-2.237C58,38.087,54.913,35,51.119,35h-0.238
	C47.087,35,44,38.087,44,41.881v2.237c0,1.945,0.815,3.701,2.117,4.954C43.227,49.502,41,51.992,41,55v4h-2v2h6v0.13
	c0,1.031,0.839,1.87,1.87,1.87h8.26c1.031,0,1.87-0.839,1.87-1.87V61h6v-2H61z M50.881,37h0.238c1.957,0,3.637,1.165,4.414,2.831
	c-0.717-0.155-1.366-0.406-1.839-0.756c-0.293-0.215-0.68-0.254-1.009-0.106c-0.982,0.447-3.248,0.898-6.297,1.006
	C47.132,38.228,48.866,37,50.881,37z M46,44.119v-2.133c2.859-0.069,5.414-0.427,6.986-0.985c0.844,0.495,1.892,0.816,3.014,0.939
	v2.179C56,46.81,53.811,49,51.119,49h-0.238C48.189,49,46,46.81,46,44.119z M55,61h-8v-6h8V61z M59,59h-2v-4.13
	c0-1.031-0.839-1.87-1.87-1.87h-8.26C45.839,53,45,53.839,45,54.87V59h-2v-4c0-2.206,1.794-4,4-4h8c2.206,0,4,1.794,4,4V59z"></path><path d="M51 57L51 57c-.552 0-1 .448-1 1l0 0c0 .552.448 1 1 1l0 0c.552 0 1-.448 1-1l0 0C52 57.448 51.552 57 51 57zM10 43L10 43c-.552 0-1 .448-1 1l0 0c0 .552.448 1 1 1h0c.552 0 1-.448 1-1l0 0C11 43.448 10.552 43 10 43zM16 43L16 43c-.552 0-1 .448-1 1l0 0c0 .552.448 1 1 1h0c.552 0 1-.448 1-1l0 0C17 43.448 16.552 43 16 43z"></path><path d="M23,59v-4c0-3.008-2.227-5.498-5.117-5.928C19.185,47.82,20,46.064,20,44.119v-2.237C20,38.087,16.913,35,13.119,35h-0.238
	C9.087,35,6,38.087,6,41.881v2.237c0,1.945,0.815,3.701,2.117,4.954C5.227,49.502,3,51.992,3,55v4H1v2h6v0.13
	C7,62.161,7.839,63,8.87,63h8.26c1.031,0,1.87-0.839,1.87-1.87V61h6v-2H23z M12.881,37h0.238c1.957,0,3.637,1.165,4.414,2.831
	c-0.717-0.155-1.366-0.406-1.839-0.756c-0.293-0.215-0.679-0.254-1.009-0.106c-0.982,0.447-3.248,0.898-6.297,1.006
	C9.132,38.228,10.866,37,12.881,37z M8,44.119v-2.133c2.859-0.069,5.414-0.427,6.986-0.985c0.844,0.495,1.892,0.816,3.014,0.939
	v2.179C18,46.81,15.811,49,13.119,49h-0.238C10.189,49,8,46.81,8,44.119z M17,61H9v-6h8V61z M21,59h-2v-4.13
	c0-1.031-0.839-1.87-1.87-1.87H8.87C7.839,53,7,53.839,7,54.87V59H5v-4c0-2.206,1.794-4,4-4h8c2.206,0,4,1.794,4,4V59z"></path><path d="M13 57L13 57c-.552 0-1 .448-1 1l0 0c0 .552.448 1 1 1h0c.552 0 1-.448 1-1l0 0C14 57.448 13.552 57 13 57zM32 7c-7.168 0-13 5.832-13 13s5.832 13 13 13 13-5.832 13-13S39.168 7 32 7zM40.454 12.973c-.714.206-1.48.382-2.286.53-.196-.737-.425-1.453-.688-2.144.326-.088.628-.186.915-.291C39.158 11.616 39.854 12.252 40.454 12.973zM33 28.019v-2.001c1.087.028 2.147.099 3.162.215-.193.694-.419 1.364-.677 2.01C34.701 28.129 33.868 28.051 33 28.019zM28.518 28.242c-.259-.646-.485-1.316-.678-2.01 1.014-.116 2.073-.187 3.16-.215v2.001C30.133 28.051 29.301 28.129 28.518 28.242zM31 11.981v2.034c-1.089-.028-2.151-.099-3.168-.216.195-.705.423-1.386.686-2.041C29.301 11.871 30.133 11.949 31 11.981zM35.478 11.759c.263.655.491 1.336.687 2.041-1.016.116-2.077.187-3.165.215v-2.034C33.866 11.949 34.696 11.871 35.478 11.759zM33 16.014c1.244-.031 2.456-.117 3.617-.258.189 1.05.292 2.138.337 3.243H33V16.014zM31 16.014V19h-3.954c.044-1.106.147-2.193.336-3.244C28.543 15.897 29.755 15.984 31 16.014zM25.023 19h-3.973c.14-1.547.599-3.003 1.315-4.299.932.3 1.948.553 3.033.754C25.195 16.606 25.068 17.793 25.023 19zM25.023 21c.045 1.218.174 2.415.381 3.576-1.081.2-2.093.451-3.022.749-.725-1.303-1.19-2.768-1.331-4.325H25.023zM27.046 21H31v3.018c-1.243.031-2.454.117-3.614.258C27.195 23.215 27.091 22.117 27.046 21zM33 24.018V21h3.954c-.045 1.117-.148 2.215-.339 3.276C35.455 24.135 34.243 24.048 33 24.018zM38.977 21h3.972c-.141 1.558-.607 3.022-1.331 4.325-.929-.297-1.94-.549-3.021-.749C38.804 23.415 38.932 22.218 38.977 21zM38.977 19c-.045-1.207-.173-2.393-.378-3.545 1.086-.201 2.102-.454 3.035-.754.716 1.297 1.175 2.752 1.315 4.299H38.977zM35.782 9.684C34.65 9.886 33.349 10 32 10s-2.65-.114-3.782-.316C29.399 9.249 30.67 9 32 9S34.601 9.249 35.782 9.684zM25.605 11.068c.286.104.587.202.912.289-.262.691-.491 1.408-.687 2.145-.806-.147-1.57-.324-2.284-.529C24.146 12.252 24.842 11.616 25.605 11.068zM23.57 27.053c.71-.203 1.469-.378 2.269-.524.194.726.419 1.433.678 2.114-.325.088-.626.186-.912.289C24.851 28.391 24.165 27.763 23.57 27.053zM28.218 30.316C29.351 30.114 30.652 30 32 30s2.649.114 3.782.316C34.6 30.751 33.33 31 32 31S29.4 30.751 28.218 30.316zM38.395 28.932c-.285-.103-.585-.201-.908-.288.258-.682.484-1.388.677-2.115.799.146 1.557.321 2.266.524C39.835 27.763 39.149 28.391 38.395 28.932z"></path><path d="M15.944 14.399C18.322 7.581 24.774 3 32 3c8.668 0 15.87 6.51 16.865 15H47c-.379 0-.725.214-.895.553-.169.339-.133.744.095 1.047l3 4c.188.252.485.4.8.4s.611-.148.8-.4l3-4c.228-.303.264-.708.095-1.047C53.725 18.214 53.379 18 53 18h-2.127C49.867 8.396 41.766 1 32 1c-8.075 0-15.286 5.12-17.944 12.741L15.944 14.399zM50 21.333L49 20h2L50 21.333zM13.2 16.4l-3 4c-.228.303-.264.708-.095 1.047C10.275 21.786 10.621 22 11 22h2.127C14.133 31.604 22.234 39 32 39c8.04 0 15.241-5.09 17.918-12.667l-1.885-.666C45.637 32.445 39.194 37 32 37c-8.668 0-15.87-6.51-16.865-15H17c.379 0 .725-.214.895-.553.169-.339.133-.744-.095-1.047l-3-4C14.423 15.896 13.577 15.896 13.2 16.4zM15 20h-2l1-1.333L15 20z"></path></svg>