<svg xmlns="http://www.w3.org/2000/svg" width="48" height="48" id="work-from-home"><path fill="#F0F1F2" d="M39 1h-2c-1.103 0-2 .897-2 2v8.636l6 4.71V3c0-1.103-.897-2-2-2z"></path><path d="M39 1h-1c1.103 0 2 .897 2 2v12.561l1 .785V3c0-1.103-.897-2-2-2z" opacity=".2"></path><path fill="#E6E7E8" d="m46.617 18.213-2-1.57h-.001L25.248 1.434a2.016 2.016 0 0 0-2.496 0L3.383 16.643h-.001l-2 1.57a1 1 0 1 0 1.235 1.574L3 19.486V45c0 1.103.897 2 2 2h38c1.103 0 2-.897 2-2V19.486l.383.3a.998.998 0 1 0 1.234-1.573z"></path><path d="m46.617 18.213-2-1.57h-.001L25.248 1.434C24.589.916 23.707.889 23 1.299c.082.047.172.075.248.135l19.369 15.21h.001l2.477 1.952-.211.814-1.817-1.475L43 45c0 1.103-.897 2-2 2h2c1.103 0 2-.897 2-2V19.486l.383.3a.998.998 0 1 0 1.234-1.573z" opacity=".2"></path><circle cx="29" cy="16" r="5" fill="#F7A645"></circle><path d="M29 11c-.342 0-.677.035-1 .101 2.279.465 4 2.484 4 4.899s-1.721 4.434-4 4.899A5.006 5.006 0 0 0 34 16c0-2.757-2.243-5-5-5z" opacity=".2"></path><path fill="#F7A645" d="M32 23h-6c-3.86 0-7 3.14-7 7v1h2v10h18V30c0-3.86-3.14-7-7-7z"></path><path d="M32 23h-2c3.86 0 7 3.14 7 7v11h2V30c0-3.86-3.14-7-7-7z" opacity=".2"></path><path fill="#53A4E3" d="M21 29H11c-1.103 0-2 .897-2 2v10h14V31c0-1.103-.897-2-2-2z"></path><path d="M21 29h-2c1.103 0 2 .897 2 2v10h2V31c0-1.103-.897-2-2-2z" opacity=".2"></path><path fill="#7C7E85" d="M39 39H9c-1.103 0-2 .897-2 2v6h34v-6c0-1.103-.897-2-2-2z"></path><path d="M39 39h-2c1.103 0 2 .897 2 2v6h2v-6c0-1.103-.897-2-2-2z" opacity=".2"></path><path fill="#FFF" d="M9.82 14.699a1 1 0 0 1 .12-1.409l4.589-3.866a1 1 0 0 1 1.289 1.529l-4.589 3.866a1 1 0 0 1-1.409-.12z"></path><path fill="none" d="M0 0h48v48H0z"></path></svg>