<svg xmlns="http://www.w3.org/2000/svg" enable-background="new 0 0 130 130" viewBox="0 0 130 130" id="weightlifting"><linearGradient id="a" x1="65" x2="65" y1="50.411" y2="-27.267" gradientUnits="userSpaceOnUse"><stop offset="0" stop-color="#ed5b5a"></stop><stop offset=".993" stop-color="#e24026"></stop></linearGradient><path fill="url(#a)" d="M65,1C29.6499,1,1,29.6501,1,65C1,100.3399,29.65,129,65,129c35.35,0,64-28.66,63.9999-64
		C129,29.65,100.35,1,65,1z"></path><linearGradient id="b" x1="65" x2="65" y1="110.483" y2="48.792" gradientUnits="userSpaceOnUse"><stop offset="0" stop-color="#ed5b5a"></stop><stop offset=".993" stop-color="#e24026"></stop></linearGradient><path fill="url(#b)" d="M5.9349,89.6705C15.5934,112.7656,38.3968,129,65,129c26.6031,0,49.4066-16.2344,59.0651-39.3295
					H5.9349z"></path><linearGradient id="c" x1="102.307" x2="102.307" y1="45.231" y2="17.635" gradientUnits="userSpaceOnUse"><stop offset="0" stop-color="#ed5b5a"></stop><stop offset=".993" stop-color="#e24026"></stop></linearGradient><path fill="url(#c)" d="M113.4824,45.6427h-22.351c0.543-5.7017,5.3332-10.1525,11.1804-10.1525
						C108.1492,35.4902,112.9394,39.941,113.4824,45.6427z"></path><linearGradient id="d" x1="102.312" x2="102.312" y1="45.231" y2="17.635" gradientUnits="userSpaceOnUse"><stop offset="0" stop-color="#ed5b5a"></stop><stop offset=".993" stop-color="#e24026"></stop></linearGradient><path fill="url(#d)" d="M97.3276,27.8686c0-2.7539,2.2302-4.9841,4.9841-4.9841c2.7442,0,4.9841,2.2302,4.9841,4.9841
						c0,2.7538-2.2399,4.9841-4.9841,4.9841C99.5579,32.8527,97.3276,30.6225,97.3276,27.8686z"></path><linearGradient id="e" x1="83.653" x2="83.653" y1="45.231" y2="17.635" gradientUnits="userSpaceOnUse"><stop offset="0" stop-color="#ed5b5a"></stop><stop offset=".993" stop-color="#e24026"></stop></linearGradient><path fill="url(#e)" d="M94.829,45.6427h-22.351c0.543-5.7017,5.3332-10.1525,11.1804-10.1525
						C89.4958,35.4902,94.286,39.941,94.829,45.6427z"></path><linearGradient id="f" x1="83.658" x2="83.658" y1="45.231" y2="17.635" gradientUnits="userSpaceOnUse"><stop offset="0" stop-color="#ed5b5a"></stop><stop offset=".993" stop-color="#e24026"></stop></linearGradient><path fill="url(#f)" d="M78.6742,27.8686c0-2.7539,2.2302-4.9841,4.9841-4.9841c2.7442,0,4.9841,2.2302,4.9841,4.9841
						c0,2.7538-2.2399,4.9841-4.9841,4.9841C80.9044,32.8527,78.6742,30.6225,78.6742,27.8686z"></path><linearGradient id="g" x1="65" x2="65" y1="45.231" y2="17.635" gradientUnits="userSpaceOnUse"><stop offset="0" stop-color="#ed5b5a"></stop><stop offset=".993" stop-color="#e24026"></stop></linearGradient><path fill="url(#g)" d="M76.1755,45.6427h-22.351c0.543-5.7017,5.3332-10.1525,11.1804-10.1525
						C70.8423,35.4902,75.6325,39.941,76.1755,45.6427z"></path><linearGradient id="h" x1="65.005" x2="65.005" y1="45.231" y2="17.635" gradientUnits="userSpaceOnUse"><stop offset="0" stop-color="#ed5b5a"></stop><stop offset=".993" stop-color="#e24026"></stop></linearGradient><path fill="url(#h)" d="M60.0207,27.8686c0-2.7539,2.2302-4.9841,4.9841-4.9841c2.7442,0,4.9841,2.2302,4.9841,4.9841
						c0,2.7538-2.2399,4.9841-4.9841,4.9841C62.251,32.8527,60.0207,30.6225,60.0207,27.8686z"></path><linearGradient id="i" x1="46.346" x2="46.346" y1="45.231" y2="17.635" gradientUnits="userSpaceOnUse"><stop offset="0" stop-color="#ed5b5a"></stop><stop offset=".993" stop-color="#e24026"></stop></linearGradient><path fill="url(#i)" d="M57.5221,45.6427H35.171c0.543-5.7017,5.3332-10.1525,11.1804-10.1525
						C52.1889,35.4902,56.979,39.941,57.5221,45.6427z"></path><linearGradient id="j" x1="46.351" x2="46.351" y1="45.231" y2="17.635" gradientUnits="userSpaceOnUse"><stop offset="0" stop-color="#ed5b5a"></stop><stop offset=".993" stop-color="#e24026"></stop></linearGradient><path fill="url(#j)" d="M41.3673,27.8686c0-2.7539,2.2302-4.9841,4.9841-4.9841c2.7442,0,4.9841,2.2302,4.9841,4.9841
						c0,2.7538-2.2399,4.9841-4.9841,4.9841C43.5975,32.8527,41.3673,30.6225,41.3673,27.8686z"></path><g><linearGradient id="k" x1="27.693" x2="27.693" y1="45.231" y2="17.635" gradientUnits="userSpaceOnUse"><stop offset="0" stop-color="#ed5b5a"></stop><stop offset=".993" stop-color="#e24026"></stop></linearGradient><path fill="url(#k)" d="M38.8686,45.6427h-22.351c0.543-5.7017,5.3332-10.1525,11.1804-10.1525
						C33.5354,35.4902,38.3256,39.941,38.8686,45.6427z"></path><linearGradient id="l" x1="27.698" x2="27.698" y1="45.231" y2="17.635" gradientUnits="userSpaceOnUse"><stop offset="0" stop-color="#ed5b5a"></stop><stop offset=".993" stop-color="#e24026"></stop></linearGradient><path fill="url(#l)" d="M22.7138,27.8686c0-2.7539,2.2302-4.9841,4.9841-4.9841c2.7442,0,4.9841,2.2302,4.9841,4.9841
						c0,2.7538-2.2399,4.9841-4.9841,4.9841C24.944,32.8527,22.7138,30.6225,22.7138,27.8686z"></path></g><g><linearGradient id="m" x1="111.634" x2="111.634" y1="58.133" y2="30.538" gradientUnits="userSpaceOnUse"><stop offset="0" stop-color="#ed5b5a"></stop><stop offset=".993" stop-color="#e24026"></stop></linearGradient><path fill="url(#m)" d="M122.8092,58.5452h-22.351c0.543-5.7017,5.3332-10.1525,11.1804-10.1525
						C117.476,48.3928,122.2661,52.8435,122.8092,58.5452z"></path><linearGradient id="n" x1="111.638" x2="111.638" y1="58.133" y2="30.538" gradientUnits="userSpaceOnUse"><stop offset="0" stop-color="#ed5b5a"></stop><stop offset=".993" stop-color="#e24026"></stop></linearGradient><path fill="url(#n)" d="M106.6544,40.7711c0-2.7539,2.2302-4.9841,4.9841-4.9841c2.7442,0,4.9841,2.2302,4.9841,4.9841
						c0,2.7538-2.2399,4.9841-4.9841,4.9841C108.8846,45.7552,106.6544,43.525,106.6544,40.7711z"></path><linearGradient id="o" x1="92.98" x2="92.98" y1="58.133" y2="30.538" gradientUnits="userSpaceOnUse"><stop offset="0" stop-color="#ed5b5a"></stop><stop offset=".993" stop-color="#e24026"></stop></linearGradient><path fill="url(#o)" d="M104.1557,58.5452h-22.351c0.543-5.7017,5.3332-10.1525,11.1804-10.1525
						C98.8225,48.3928,103.6127,52.8435,104.1557,58.5452z"></path><linearGradient id="p" x1="92.985" x2="92.985" y1="58.133" y2="30.538" gradientUnits="userSpaceOnUse"><stop offset="0" stop-color="#ed5b5a"></stop><stop offset=".993" stop-color="#e24026"></stop></linearGradient><path fill="url(#p)" d="M88.0009,40.7711c0-2.7539,2.2302-4.9841,4.9841-4.9841c2.7442,0,4.9841,2.2302,4.9841,4.9841
						c0,2.7538-2.2399,4.9841-4.9841,4.9841C90.2311,45.7552,88.0009,43.525,88.0009,40.7711z"></path><linearGradient id="q" x1="74.327" x2="74.327" y1="58.133" y2="30.538" gradientUnits="userSpaceOnUse"><stop offset="0" stop-color="#ed5b5a"></stop><stop offset=".993" stop-color="#e24026"></stop></linearGradient><path fill="url(#q)" d="M85.5023,58.5452h-22.351c0.543-5.7017,5.3332-10.1525,11.1804-10.1525
						C80.169,48.3928,84.9592,52.8435,85.5023,58.5452z"></path><linearGradient id="r" x1="74.332" x2="74.332" y1="58.133" y2="30.538" gradientUnits="userSpaceOnUse"><stop offset="0" stop-color="#ed5b5a"></stop><stop offset=".993" stop-color="#e24026"></stop></linearGradient><path fill="url(#r)" d="M69.3474,40.7711c0-2.7539,2.2302-4.9841,4.9841-4.9841c2.7442,0,4.9841,2.2302,4.9841,4.9841
						c0,2.7538-2.2399,4.9841-4.9841,4.9841C71.5777,45.7552,69.3474,43.525,69.3474,40.7711z"></path><g><linearGradient id="s" x1="55.673" x2="55.673" y1="58.133" y2="30.538" gradientUnits="userSpaceOnUse"><stop offset="0" stop-color="#ed5b5a"></stop><stop offset=".993" stop-color="#e24026"></stop></linearGradient><path fill="url(#s)" d="M66.8488,58.5452h-22.351c0.543-5.7017,5.3332-10.1525,11.1804-10.1525
						C61.5156,48.3928,66.3058,52.8435,66.8488,58.5452z"></path><linearGradient id="t" x1="55.678" x2="55.678" y1="58.133" y2="30.538" gradientUnits="userSpaceOnUse"><stop offset="0" stop-color="#ed5b5a"></stop><stop offset=".993" stop-color="#e24026"></stop></linearGradient><path fill="url(#t)" d="M50.694,40.7711c0-2.7539,2.2302-4.9841,4.9841-4.9841c2.7442,0,4.9841,2.2302,4.9841,4.9841
						c0,2.7538-2.2399,4.9841-4.9841,4.9841C52.9242,45.7552,50.694,43.525,50.694,40.7711z"></path></g><g><linearGradient id="u" x1="37.02" x2="37.02" y1="58.133" y2="30.538" gradientUnits="userSpaceOnUse"><stop offset="0" stop-color="#ed5b5a"></stop><stop offset=".993" stop-color="#e24026"></stop></linearGradient><path fill="url(#u)" d="M48.1953,58.5452h-22.351c0.543-5.7017,5.3332-10.1525,11.1804-10.1525
						C42.8621,48.3928,47.6523,52.8435,48.1953,58.5452z"></path><linearGradient id="v" x1="37.025" x2="37.025" y1="58.133" y2="30.538" gradientUnits="userSpaceOnUse"><stop offset="0" stop-color="#ed5b5a"></stop><stop offset=".993" stop-color="#e24026"></stop></linearGradient><path fill="url(#v)" d="M32.0405,40.7711c0-2.7539,2.2302-4.9841,4.9841-4.9841c2.7442,0,4.9841,2.2302,4.9841,4.9841
						c0,2.7538-2.2399,4.9841-4.9841,4.9841C34.2708,45.7552,32.0405,43.525,32.0405,40.7711z"></path></g><g><linearGradient id="w" x1="18.366" x2="18.366" y1="58.133" y2="30.538" gradientUnits="userSpaceOnUse"><stop offset="0" stop-color="#ed5b5a"></stop><stop offset=".993" stop-color="#e24026"></stop></linearGradient><path fill="url(#w)" d="M29.5419,58.5452H7.1908c0.543-5.7017,5.3332-10.1525,11.1804-10.1525
						C24.2087,48.3928,28.9989,52.8435,29.5419,58.5452z"></path><linearGradient id="x" x1="18.371" x2="18.371" y1="58.133" y2="30.538" gradientUnits="userSpaceOnUse"><stop offset="0" stop-color="#ed5b5a"></stop><stop offset=".993" stop-color="#e24026"></stop></linearGradient><path fill="url(#x)" d="M13.3871,40.7711c0-2.7539,2.2302-4.9841,4.9841-4.9841c2.7442,0,4.9841,2.2302,4.9841,4.9841
						c0,2.7538-2.2399,4.9841-4.9841,4.9841C15.6173,45.7552,13.3871,43.525,13.3871,40.7711z"></path></g></g><g><linearGradient id="y" x1="119.392" x2="119.392" y1="70.993" y2="43.398" gradientUnits="userSpaceOnUse"><stop offset="0" stop-color="#ed5b5a"></stop><stop offset=".993" stop-color="#e24026"></stop></linearGradient><path fill="url(#y)" d="M128.6801,71.4049C128.8895,69.298,129,67.1619,129,65c0-0.1187-0.0083-0.2354-0.009-0.3539
						c-2.0373-2.0898-4.8753-3.3937-8.0258-3.3937c-5.8472,0-10.6373,4.4508-11.1804,10.1525H128.6801z"></path><linearGradient id="z" x1="120.965" x2="120.965" y1="70.993" y2="43.398" gradientUnits="userSpaceOnUse"><stop offset="0" stop-color="#ed5b5a"></stop><stop offset=".993" stop-color="#e24026"></stop></linearGradient><path fill="url(#z)" d="M115.9811,53.6308c0-2.7539,2.2302-4.9841,4.9841-4.9841c2.7442,0,4.9841,2.2302,4.9841,4.9841
						c0,2.7538-2.2399,4.9841-4.9841,4.9841C118.2113,58.6149,115.9811,56.3846,115.9811,53.6308z"></path><linearGradient id="A" x1="102.307" x2="102.307" y1="70.993" y2="43.398" gradientUnits="userSpaceOnUse"><stop offset="0" stop-color="#ed5b5a"></stop><stop offset=".993" stop-color="#e24026"></stop></linearGradient><path fill="url(#A)" d="M113.4824,71.4049h-22.351c0.543-5.7017,5.3332-10.1525,11.1804-10.1525
						C108.1492,61.2524,112.9394,65.7032,113.4824,71.4049z"></path><linearGradient id="B" x1="102.312" x2="102.312" y1="70.993" y2="43.398" gradientUnits="userSpaceOnUse"><stop offset="0" stop-color="#ed5b5a"></stop><stop offset=".993" stop-color="#e24026"></stop></linearGradient><path fill="url(#B)" d="M97.3276,53.6308c0-2.7539,2.2302-4.9841,4.9841-4.9841c2.7442,0,4.9841,2.2302,4.9841,4.9841
						c0,2.7538-2.2399,4.9841-4.9841,4.9841C99.5579,58.6149,97.3276,56.3846,97.3276,53.6308z"></path><linearGradient id="C" x1="83.653" x2="83.653" y1="70.993" y2="43.398" gradientUnits="userSpaceOnUse"><stop offset="0" stop-color="#ed5b5a"></stop><stop offset=".993" stop-color="#e24026"></stop></linearGradient><path fill="url(#C)" d="M94.829,71.4049h-22.351c0.543-5.7017,5.3332-10.1525,11.1804-10.1525
						C89.4958,61.2524,94.286,65.7032,94.829,71.4049z"></path><linearGradient id="D" x1="83.658" x2="83.658" y1="70.993" y2="43.398" gradientUnits="userSpaceOnUse"><stop offset="0" stop-color="#ed5b5a"></stop><stop offset=".993" stop-color="#e24026"></stop></linearGradient><path fill="url(#D)" d="M78.6742,53.6308c0-2.7539,2.2302-4.9841,4.9841-4.9841c2.7442,0,4.9841,2.2302,4.9841,4.9841
						c0,2.7538-2.2399,4.9841-4.9841,4.9841C80.9044,58.6149,78.6742,56.3846,78.6742,53.6308z"></path><linearGradient id="E" x1="65" x2="65" y1="70.993" y2="43.398" gradientUnits="userSpaceOnUse"><stop offset="0" stop-color="#ed5b5a"></stop><stop offset=".993" stop-color="#e24026"></stop></linearGradient><path fill="url(#E)" d="M76.1755,71.4049h-22.351c0.543-5.7017,5.3332-10.1525,11.1804-10.1525
						C70.8423,61.2524,75.6325,65.7032,76.1755,71.4049z"></path><linearGradient id="F" x1="65.005" x2="65.005" y1="70.993" y2="43.398" gradientUnits="userSpaceOnUse"><stop offset="0" stop-color="#ed5b5a"></stop><stop offset=".993" stop-color="#e24026"></stop></linearGradient><path fill="url(#F)" d="M60.0207,53.6308c0-2.7539,2.2302-4.9841,4.9841-4.9841c2.7442,0,4.9841,2.2302,4.9841,4.9841
						c0,2.7538-2.2399,4.9841-4.9841,4.9841C62.251,58.6149,60.0207,56.3846,60.0207,53.6308z"></path><g><linearGradient id="G" x1="46.346" x2="46.346" y1="70.993" y2="43.398" gradientUnits="userSpaceOnUse"><stop offset="0" stop-color="#ed5b5a"></stop><stop offset=".993" stop-color="#e24026"></stop></linearGradient><path fill="url(#G)" d="M57.5221,71.4049H35.171c0.543-5.7017,5.3332-10.1525,11.1804-10.1525
						C52.1889,61.2524,56.979,65.7032,57.5221,71.4049z"></path><linearGradient id="H" x1="46.351" x2="46.351" y1="70.993" y2="43.398" gradientUnits="userSpaceOnUse"><stop offset="0" stop-color="#ed5b5a"></stop><stop offset=".993" stop-color="#e24026"></stop></linearGradient><path fill="url(#H)" d="M41.3673,53.6308c0-2.7539,2.2302-4.9841,4.9841-4.9841c2.7442,0,4.9841,2.2302,4.9841,4.9841
						c0,2.7538-2.2399,4.9841-4.9841,4.9841C43.5975,58.6149,41.3673,56.3846,41.3673,53.6308z"></path></g><g><linearGradient id="I" x1="27.693" x2="27.693" y1="70.993" y2="43.398" gradientUnits="userSpaceOnUse"><stop offset="0" stop-color="#ed5b5a"></stop><stop offset=".993" stop-color="#e24026"></stop></linearGradient><path fill="url(#I)" d="M38.8686,71.4049h-22.351c0.543-5.7017,5.3332-10.1525,11.1804-10.1525
						C33.5354,61.2524,38.3256,65.7032,38.8686,71.4049z"></path><linearGradient id="J" x1="27.698" x2="27.698" y1="70.993" y2="43.398" gradientUnits="userSpaceOnUse"><stop offset="0" stop-color="#ed5b5a"></stop><stop offset=".993" stop-color="#e24026"></stop></linearGradient><path fill="url(#J)" d="M22.7138,53.6308c0-2.7539,2.2302-4.9841,4.9841-4.9841c2.7442,0,4.9841,2.2302,4.9841,4.9841
						c0,2.7538-2.2399,4.9841-4.9841,4.9841C24.944,58.6149,22.7138,56.3846,22.7138,53.6308z"></path></g><g><linearGradient id="K" x1="10.608" x2="10.608" y1="70.993" y2="43.398" gradientUnits="userSpaceOnUse"><stop offset="0" stop-color="#ed5b5a"></stop><stop offset=".993" stop-color="#e24026"></stop></linearGradient><path fill="url(#K)" d="M9.0445,61.2524c-3.1562,0-5.997,1.3043-8.0356,3.3947C1.0083,64.7653,1,64.8817,1,65
						c0,2.1619,0.1105,4.2979,0.32,6.4048h18.8951C19.6721,65.7032,14.882,61.2524,9.0445,61.2524z"></path><linearGradient id="L" x1="9.044" x2="9.044" y1="70.993" y2="43.398" gradientUnits="userSpaceOnUse"><stop offset="0" stop-color="#ed5b5a"></stop><stop offset=".993" stop-color="#e24026"></stop></linearGradient><path fill="url(#L)" d="M4.0603,53.6308c0-2.7539,2.2302-4.9841,4.9841-4.9841c2.7442,0,4.9841,2.2302,4.9841,4.9841
						c0,2.7538-2.2399,4.9841-4.9841,4.9841C6.2906,58.6149,4.0603,56.3846,4.0603,53.6308z"></path></g></g><g><linearGradient id="M" x1="111.634" x2="111.634" y1="83.599" y2="56.003" gradientUnits="userSpaceOnUse"><stop offset="0" stop-color="#ed5b5a"></stop><stop offset=".993" stop-color="#e24026"></stop></linearGradient><path fill="url(#M)" d="M122.8092,84.0106h-22.351c0.543-5.7017,5.3332-10.1525,11.1804-10.1525
						C117.476,73.8582,122.2661,78.3089,122.8092,84.0106z"></path><linearGradient id="N" x1="111.638" x2="111.638" y1="83.599" y2="56.003" gradientUnits="userSpaceOnUse"><stop offset="0" stop-color="#ed5b5a"></stop><stop offset=".993" stop-color="#e24026"></stop></linearGradient><path fill="url(#N)" d="M106.6544,66.2365c0-2.7539,2.2302-4.9841,4.9841-4.9841c2.7442,0,4.9841,2.2302,4.9841,4.9841
						c0,2.7538-2.2399,4.9841-4.9841,4.9841C108.8846,71.2206,106.6544,68.9904,106.6544,66.2365z"></path><linearGradient id="O" x1="92.98" x2="92.98" y1="83.599" y2="56.003" gradientUnits="userSpaceOnUse"><stop offset="0" stop-color="#ed5b5a"></stop><stop offset=".993" stop-color="#e24026"></stop></linearGradient><path fill="url(#O)" d="M104.1557,84.0106h-22.351c0.543-5.7017,5.3332-10.1525,11.1804-10.1525
						C98.8225,73.8582,103.6127,78.3089,104.1557,84.0106z"></path><linearGradient id="P" x1="92.985" x2="92.985" y1="83.599" y2="56.003" gradientUnits="userSpaceOnUse"><stop offset="0" stop-color="#ed5b5a"></stop><stop offset=".993" stop-color="#e24026"></stop></linearGradient><path fill="url(#P)" d="M88.0009,66.2365c0-2.7539,2.2302-4.9841,4.9841-4.9841c2.7442,0,4.9841,2.2302,4.9841,4.9841
						c0,2.7538-2.2399,4.9841-4.9841,4.9841C90.2311,71.2206,88.0009,68.9904,88.0009,66.2365z"></path><linearGradient id="Q" x1="74.327" x2="74.327" y1="83.599" y2="56.003" gradientUnits="userSpaceOnUse"><stop offset="0" stop-color="#ed5b5a"></stop><stop offset=".993" stop-color="#e24026"></stop></linearGradient><path fill="url(#Q)" d="M85.5023,84.0106h-22.351c0.543-5.7017,5.3332-10.1525,11.1804-10.1525
						C80.169,73.8582,84.9592,78.3089,85.5023,84.0106z"></path><linearGradient id="R" x1="74.332" x2="74.332" y1="83.599" y2="56.003" gradientUnits="userSpaceOnUse"><stop offset="0" stop-color="#ed5b5a"></stop><stop offset=".993" stop-color="#e24026"></stop></linearGradient><path fill="url(#R)" d="M69.3474,66.2365c0-2.7539,2.2302-4.9841,4.9841-4.9841c2.7442,0,4.9841,2.2302,4.9841,4.9841
						c0,2.7538-2.2399,4.9841-4.9841,4.9841C71.5777,71.2206,69.3474,68.9904,69.3474,66.2365z"></path><g><linearGradient id="S" x1="55.673" x2="55.673" y1="83.599" y2="56.003" gradientUnits="userSpaceOnUse"><stop offset="0" stop-color="#ed5b5a"></stop><stop offset=".993" stop-color="#e24026"></stop></linearGradient><path fill="url(#S)" d="M66.8488,84.0106h-22.351c0.543-5.7017,5.3332-10.1525,11.1804-10.1525
						C61.5156,73.8582,66.3058,78.3089,66.8488,84.0106z"></path><linearGradient id="T" x1="55.678" x2="55.678" y1="83.599" y2="56.003" gradientUnits="userSpaceOnUse"><stop offset="0" stop-color="#ed5b5a"></stop><stop offset=".993" stop-color="#e24026"></stop></linearGradient><path fill="url(#T)" d="M50.694,66.2365c0-2.7539,2.2302-4.9841,4.9841-4.9841c2.7442,0,4.9841,2.2302,4.9841,4.9841
						c0,2.7538-2.2399,4.9841-4.9841,4.9841C52.9242,71.2206,50.694,68.9904,50.694,66.2365z"></path></g><g><linearGradient id="U" x1="37.02" x2="37.02" y1="83.599" y2="56.003" gradientUnits="userSpaceOnUse"><stop offset="0" stop-color="#ed5b5a"></stop><stop offset=".993" stop-color="#e24026"></stop></linearGradient><path fill="url(#U)" d="M48.1953,84.0106h-22.351c0.543-5.7017,5.3332-10.1525,11.1804-10.1525
						C42.8621,73.8582,47.6523,78.3089,48.1953,84.0106z"></path><linearGradient id="V" x1="37.025" x2="37.025" y1="83.599" y2="56.003" gradientUnits="userSpaceOnUse"><stop offset="0" stop-color="#ed5b5a"></stop><stop offset=".993" stop-color="#e24026"></stop></linearGradient><path fill="url(#V)" d="M32.0405,66.2365c0-2.7539,2.2302-4.9841,4.9841-4.9841c2.7442,0,4.9841,2.2302,4.9841,4.9841
						c0,2.7538-2.2399,4.9841-4.9841,4.9841C34.2708,71.2206,32.0405,68.9904,32.0405,66.2365z"></path></g><g><linearGradient id="W" x1="18.366" x2="18.366" y1="83.599" y2="56.003" gradientUnits="userSpaceOnUse"><stop offset="0" stop-color="#ed5b5a"></stop><stop offset=".993" stop-color="#e24026"></stop></linearGradient><path fill="url(#W)" d="M29.5419,84.0106H7.1908c0.543-5.7017,5.3332-10.1525,11.1804-10.1525
						C24.2087,73.8582,28.9989,78.3089,29.5419,84.0106z"></path><linearGradient id="X" x1="18.371" x2="18.371" y1="83.599" y2="56.003" gradientUnits="userSpaceOnUse"><stop offset="0" stop-color="#ed5b5a"></stop><stop offset=".993" stop-color="#e24026"></stop></linearGradient><path fill="url(#X)" d="M13.3871,66.2365c0-2.7539,2.2302-4.9841,4.9841-4.9841c2.7442,0,4.9841,2.2302,4.9841,4.9841
						c0,2.7538-2.2399,4.9841-4.9841,4.9841C15.6173,71.2206,13.3871,68.9904,13.3871,66.2365z"></path></g></g><g><linearGradient id="Y" x1="53.064" x2="53.064" y1="116.437" y2="43.28" gradientUnits="userSpaceOnUse"><stop offset="0" stop-color="#fbd2c3"></stop><stop offset=".996" stop-color="#f8af9b"></stop></linearGradient><path fill="url(#Y)" d="M59.5147,90.4364l-5.7411,5.4386l-2.8166,15.591h-2.7244l-1.5912-16.8972
							c-0.1591-1.6893,0.3659-3.3718,1.4575-4.6709l4.7957-5.7075L59.5147,90.4364z"></path><linearGradient id="Z" x1="11769.538" x2="11769.538" y1="116.437" y2="43.28" gradientTransform="matrix(-1 0 0 1 11846.474 0)" gradientUnits="userSpaceOnUse"><stop offset="0" stop-color="#fbd2c3"></stop><stop offset=".996" stop-color="#f8af9b"></stop></linearGradient><path fill="url(#Z)" d="M70.4857,90.4364l5.7411,5.4386l2.8166,15.591h2.7244l1.5912-16.8972
							c0.1591-1.6893-0.3659-3.3718-1.4575-4.6709l-4.7957-5.7075L70.4857,90.4364z"></path><linearGradient id="aa" x1="65" x2="65" y1="90.406" y2="73.486" gradientUnits="userSpaceOnUse"><stop offset="0" stop-color="#2a3477"></stop><stop offset=".989" stop-color="#13163f"></stop></linearGradient><path fill="url(#aa)" d="M78.8364,85.8005c-0.0809-0.1013-5.9753-7.5577-6.7982-8.25H57.9622
						c-0.8204,0.6902-6.7179,8.1495-6.7982,8.25c-1.0568,1.1226,5.9139,7.6828,6.9708,6.561l6.865-4.5856l6.8658,4.5856
						C72.9224,93.4834,79.8932,86.9232,78.8364,85.8005z"></path><linearGradient id="ab" x1="65" x2="65" y1="79.724" y2="77.321" gradientUnits="userSpaceOnUse"><stop offset="0" stop-color="#383647"></stop><stop offset=".993" stop-color="#272535"></stop></linearGradient><path fill="url(#ab)" d="M16.0755,64.4228c-0.282,0-0.5217-0.2162-0.5457-0.5024
									c-0.0254-0.3018,0.1986-0.567,0.5004-0.5924c16.1224-1.3568,32.5351-2.0448,48.7821-2.0448
									c16.2468,0,32.7856,0.688,49.1568,2.0448c0.3018,0.025,0.5262,0.29,0.5012,0.5918
									c-0.025,0.3018-0.2899,0.5269-0.5917,0.5012c-32.6823-2.7086-65.5722-2.7086-97.7565,0
									C16.1065,64.4222,16.091,64.4228,16.0755,64.4228z"></path><path fill="#383647" d="M100.3867 53.2034c-.9092-.0459-1.6836.6538-1.7296 1.5631l-.8303 16.4164c-.046.9093.6538 1.6837 1.563 1.7297.9092.0459 1.6837-.6538 1.7296-1.5631l.8303-16.4164C101.9958 54.0238 101.2959 53.2494 100.3867 53.2034zM104.3791 54.5984c-.9092-.0459-1.6836.6538-1.7296 1.5631l-.7099 14.0364c-.046.9093.6538 1.6837 1.563 1.7296.9093.0459 1.6837-.6538 1.7296-1.563l.71-14.0365C105.9881 55.4187 105.2883 54.6444 104.3791 54.5984zM108.3313 56.7866c-.9093-.0459-1.6837.6538-1.7296 1.5631l-.5093 10.0698c-.046.9093.6538 1.6837 1.5631 1.7296.9092.046 1.6836-.6538 1.7296-1.563l.5093-10.0699C109.9404 57.6069 109.2406 56.8326 108.3313 56.7866zM96.3896 51.9021c-.9092-.046-1.6837.6538-1.7296 1.563l-.9412 18.6092c-.046.9093.6539 1.6836 1.5631 1.7296.9092.0459 1.6836-.6538 1.7296-1.5631l.9412-18.6091C97.9987 52.7224 97.2989 51.948 96.3896 51.9021zM31.3429 54.7665c-.046-.9093-.8203-1.609-1.7296-1.5631-.9092.046-1.6091.8204-1.563 1.7297l.8303 16.4164c.046.9093.8204 1.609 1.7296 1.5631.9093-.046 1.6091-.8204 1.5631-1.7297L31.3429 54.7665zM27.3506 56.1615c-.046-.9093-.8204-1.609-1.7296-1.5631-.9093.046-1.6091.8203-1.5631 1.7296l.7099 14.0365c.046.9092.8204 1.6089 1.7296 1.563.9093-.0459 1.6091-.8203 1.5631-1.7296L27.3506 56.1615zM23.3984 58.3497c-.046-.9093-.8204-1.609-1.7296-1.5631-.9092.046-1.6091.8203-1.563 1.7296l.5093 10.0699c.046.9092.8204 1.609 1.7296 1.563.9092-.0459 1.6091-.8203 1.563-1.7296L23.3984 58.3497zM35.3401 53.4651c-.046-.9092-.8204-1.609-1.7296-1.563-.9092.0459-1.6091.8203-1.5631 1.7296l.9412 18.6091c.046.9093.8204 1.609 1.7296 1.5631.9092-.046 1.6091-.8203 1.563-1.7296L35.3401 53.4651z"></path><linearGradient id="ac" x1="65" x2="65" y1="116.239" y2="43.313" gradientUnits="userSpaceOnUse"><stop offset="0" stop-color="#fbd2c3"></stop><stop offset=".996" stop-color="#f8af9b"></stop></linearGradient><path fill="url(#ac)" d="M87.0529,62.8074c-0.3034,0.9157-0.711,1.2484-0.7366,1.2685
									c-0.298,3.9736-1.104,13.2323-2.2363,14.318c-1.2502,1.1999-6.0801-0.3829-9.425-4.8839
									c-1.0462,1.7258-1.8973,2.4818-2.3834,4.6042c-1.366,5.9398-13.2302,5.7076-14.5428,0
									c-0.4848-2.1169-1.354-2.9061-2.3834-4.6042c-3.3448,4.5009-8.1748,6.0838-9.425,4.8839
									c-1.1323-1.0857-1.9384-10.3444-2.2363-14.318c-0.0256-0.0201-0.4332-0.3646-0.7366-1.2804
									c0.2047-0.0082,2.2208-0.0804,3.1731-0.1115c2.2992-1.0936,2.2615,0.4066,2.3615,0.4332
									c-0.6918,0.4113-1.8214,0.8673-1.8854,0.8929l1.9603,7.4446c0.2696-0.9002,0.8262-1.6916,1.274-2.8312
									c0.7334-1.8663,2.6882-4.1295,4.139-5.4687c1.5043-1.5125,4.1884-1.8991,6.3214-1.9009c1.03,0,1.8671-0.8289,1.8671-1.8589
									v-5.689h5.6835v5.689c0,1.03,0.8371,1.8589,1.8671,1.8589c4.8343,0.0041,6.2232,1.8573,6.3233,1.9027
									c0.095,0.0868,3.1209,2.8806,4.1372,5.4669c0.4478,1.1396,1.0044,1.9311,1.274,2.8312l1.9621-7.4437
									c0,0-1.1753-0.4706-1.8872-0.8938c0-0.0036,0.0009-0.0073,0.0018-0.0119c0.0795-0.5922,0.6872-0.9623,1.2603-0.7923
									c0.478,0.1416,0.8654,0.2541,1.1296,0.3857C85.1393,62.7377,86.4471,62.7842,87.0529,62.8074z"></path><linearGradient id="ad" x1="84.828" x2="84.828" y1="116.437" y2="43.28" gradientUnits="userSpaceOnUse"><stop offset="0" stop-color="#fbd2c3"></stop><stop offset=".996" stop-color="#f8af9b"></stop></linearGradient><path fill="url(#ad)" d="M86.4791,62.2782c-0.5209,0.2458-2.7572-0.0283-3.439-0.3509
									c-0.2906-0.138-0.4012-0.3729-0.4313-0.5977c-0.043-0.3135,0.2093-0.5895,0.5255-0.5904
									C88.4522,60.7319,86.9864,62.0388,86.4791,62.2782z"></path><linearGradient id="ae" x1="11335.065" x2="11335.065" y1="116.437" y2="43.28" gradientTransform="matrix(-1 0 0 1 11380.237 0)" gradientUnits="userSpaceOnUse"><stop offset="0" stop-color="#fbd2c3"></stop><stop offset=".996" stop-color="#f8af9b"></stop></linearGradient><path fill="url(#ae)" d="M43.521,62.2782c0.5209,0.2458,2.7572-0.0283,3.439-0.3509
									c0.2906-0.138,0.4012-0.3729,0.4313-0.5977c0.043-0.3135-0.2093-0.5895-0.5255-0.5904
									C41.5478,60.7319,43.0137,62.0388,43.521,62.2782z"></path><linearGradient id="af" x1="66.659" x2="66.659" y1="116.437" y2="43.28" gradientUnits="userSpaceOnUse"><stop offset="0" stop-color="#fbd2c3"></stop><stop offset=".996" stop-color="#f8af9b"></stop></linearGradient><path fill="url(#af)" d="M69.3143,45.7833l-6.7348,2.4088v6.2991c1.4932,2.5179,3.8067,4.9161,7.1637,4.7458
						c0.3123-0.0155,0.5669-0.2536,0.6144-0.5618C71.0615,54.0857,70.8296,49.7572,69.3143,45.7833z"></path><g><linearGradient id="ag" x1="64.939" x2="64.939" y1="86.657" y2="84.298" gradientUnits="userSpaceOnUse"><stop offset="0" stop-color="#fbaf28"></stop><stop offset=".996" stop-color="#f4832c"></stop></linearGradient><path fill="url(#ag)" d="M73.0182,76.0762c-0.3043,0.5849-0.5374,1.2027-0.6991,1.8415
						c-0.5949,1.6689-3.2772,3.6026-7.3194,3.6026c-4.0413,0-6.9451-1.7122-7.3185-3.6026
						c-0.1618-0.6388-0.3948-1.2566-0.6991-1.8415c-0.0953,0.1421-0.1693,0.3282-0.2268,0.5273
						c-0.2427,0.841-0.1428,1.7411,0.2245,2.5356c0.3824,0.8271,1.0769,1.8743,2.2806,2.4734
						c1.5514,0.7722,3.5926,1.1871,5.7393,1.1871c2.1477,0,4.3444-0.1601,5.7402-1.1871c2.2391-1.6476,2.4661-3.74,2.4661-3.74
						S73.3993,76.6447,73.0182,76.0762z"></path></g><g><linearGradient id="ah" x1="-202.49" x2="-202.49" y1="-998.55" y2="-994.925" gradientTransform="rotate(-10.58 5780.579 -1888.8)" gradientUnits="userSpaceOnUse"><stop offset="0" stop-color="#fbaf28"></stop><stop offset=".996" stop-color="#f4832c"></stop></linearGradient><path fill="url(#ah)" d="M64.3679,81.4781c-1.4549,0.0411-2.9553,0.1307-4.3955,0.4978
						c-0.0815,0.0202-0.1296,0.0977-0.1111,0.1714c0.0871,0.3523,0.1465,0.7197,0.218,1.0776
						c0.0163,0.0814,0.1014,0.1288,0.1798,0.1039c1.4251-0.4421,2.8109-0.5475,4.2798-0.5693L64.3679,81.4781z"></path></g><g><path fill="#FFF" d="M66.6822,82.8948c-0.0165,0.0804-0.0878,0.1389-0.17,0.1435
							c-0.5081,0.0274-1.0172,0.0357-1.5125,0.0357c-0.5593,0-1.1104-0.0274-1.6468-0.0823
							c-0.0759-0.0073-0.1407-0.0612-0.159-0.1353c-0.1261-0.5054-0.1215-1.0263-0.0064-1.5618
							c0.0201-0.095,0.1079-0.1581,0.2038-0.1462c0.5209,0.0649,1.0601,0.0978,1.6085,0.0978c0.5163,0,1.0117-0.0329,1.4832-0.0932
							c0.0978-0.0128,0.1864,0.053,0.2056,0.149C66.7937,81.8392,66.7946,82.3702,66.6822,82.8948z"></path></g><g><linearGradient id="ai" x1="67.915" x2="67.915" y1="48.577" y2="66.497" gradientUnits="userSpaceOnUse"><stop offset="0" stop-color="#383647"></stop><stop offset=".993" stop-color="#272535"></stop></linearGradient><path fill="url(#ai)" d="M74.8889,45.7861c0.0192,1.8835-2.4702,3.0049-3.9754,3.3695
					c-1.9009,0.4615-3.6519,0.6023-4.5,2.6677c-0.297,0.7247-0.0475,1.9548-0.5904,2.5214
					c-0.6781,0.7092-1.4129-0.4314-2.0965,0.4094c-0.5209,0.6406-0.138,1.8232-0.923,2.3003
					c-2.0842,1.2639-2.0028-5.2885-1.709-7.8842c0.2285-2.0234,1.358-3.269,3.1603-4.1171
					C66.1548,44.1585,74.8487,41.5822,74.8889,45.7861z"></path></g><g><linearGradient id="aj" x1="82.709" x2="82.709" y1="113.213" y2="118.114" gradientUnits="userSpaceOnUse"><stop offset="0" stop-color="#383647"></stop><stop offset=".993" stop-color="#272535"></stop></linearGradient><path fill="url(#aj)" d="M86.9866,112.6878h-7.89c-0.42,0-0.7599-0.32-0.79-0.73c-0.11-1.33-0.27-3.97,0.06-3.79
				c2.43,0.56,3.82-0.4,3.88-0.19c0.14,0.21-0.25,0.15,0.52,1.08c0.66,0.78,1.52,1.37,2.47,1.75c0.89,0.35,1.77,0.86,2,1.54
				C87.2866,112.5078,87.1666,112.6878,86.9866,112.6878z"></path></g><g><linearGradient id="ak" x1="-823.793" x2="-823.793" y1="113.213" y2="118.114" gradientTransform="matrix(-1 0 0 1 -776.526 0)" gradientUnits="userSpaceOnUse"><stop offset="0" stop-color="#383647"></stop><stop offset=".993" stop-color="#272535"></stop></linearGradient><path fill="url(#ak)" d="M42.9895,112.6878h7.89c0.42,0,0.7599-0.32,0.79-0.73c0.11-1.33,0.27-3.97-0.06-3.79
				c-2.43,0.56-3.82-0.4-3.88-0.19c-0.14,0.21,0.25,0.15-0.52,1.08c-0.66,0.78-1.52,1.37-2.47,1.75c-0.89,0.35-1.77,0.86-2,1.54
				C42.6895,112.5078,42.8095,112.6878,42.9895,112.6878z"></path></g></g></svg>