<svg xmlns="http://www.w3.org/2000/svg" viewBox="0 0 64 64" id="movie-film"><g data-name="Movie Film"><path fill="#57565c" d="M3,11V53H61V11Zm49,3h4v4H52Zm-8,0h4v4H44Zm-8,0h4v4H36ZM12,50H8V46h4Zm0-32H8V14h4Zm8,32H16V46h4Zm0-32H16V14h4Zm8,32H24V46h4Zm0-32H24V14h4ZM40,50H36V46h4Zm8,0H44V46h4Zm8,0H52V46h4Z"></path><rect width="24" height="22" x="34" y="21" fill="#a78966"></rect><rect width="24" height="22" x="6" y="21" fill="#a78966"></rect><polygon fill="#b39a7c" points="34 21 34 43 38 43 52.333 21 34 21"></polygon><polygon fill="#b39a7c" points="6 21 6 43 10 43 24.333 21 6 21"></polygon><rect width="3.606" height="2" x="10.197" y="25.5" fill="#806749" transform="rotate(-56.31 12 26.5)"></rect><rect width="10.817" height="2" x="9.592" y="28.5" fill="#806749" transform="rotate(-56.31 15 29.5)"></rect><rect width="3.606" height="2" x="38.197" y="25.5" fill="#806749" transform="rotate(-56.31 40 26.5)"></rect><rect width="10.817" height="2" x="37.592" y="28.5" fill="#806749" transform="rotate(-56.31 43 29.5)"></rect></g></svg>